<mxfile host="app.diagrams.net" modified="2021-05-28T12:00:24.525Z" agent="5.0 (Windows NT 10.0; Win64; x64) AppleWebKit/537.36 (KHTML, like Gecko) Chrome/90.0.4430.72 YaBrowser/21.5.1.330 Yowser/2.5 Safari/537.36" etag="i2QK5v9zPZrI2RvMOM3U" version="14.7.2" type="github">
  <diagram id="ovl93kgdagDSXJWDj75_" name="Page-1">
    <mxGraphModel dx="3304" dy="3299" grid="1" gridSize="10" guides="1" tooltips="1" connect="1" arrows="1" fold="1" page="1" pageScale="1" pageWidth="827" pageHeight="1169" math="0" shadow="0">
      <root>
        <mxCell id="0" />
        <mxCell id="1" parent="0" />
        <mxCell id="dWMFUqPLQpucTrkb1VZX-1" value="" style="strokeWidth=2;html=1;shape=mxgraph.flowchart.start_2;whiteSpace=wrap;fillColor=#000000;strokeColor=#FF0000;" vertex="1" parent="1">
          <mxGeometry x="-690" y="-1590" width="100" height="100" as="geometry" />
        </mxCell>
        <mxCell id="dWMFUqPLQpucTrkb1VZX-2" value="" style="endArrow=none;html=1;strokeWidth=3;" edge="1" parent="1">
          <mxGeometry width="50" height="50" relative="1" as="geometry">
            <mxPoint x="-1025" y="-1220" as="sourcePoint" />
            <mxPoint x="470" y="-1220" as="targetPoint" />
          </mxGeometry>
        </mxCell>
        <mxCell id="dWMFUqPLQpucTrkb1VZX-3" value="" style="endArrow=classic;html=1;strokeColor=#FF0000;exitX=0.5;exitY=1;exitDx=0;exitDy=0;exitPerimeter=0;" edge="1" parent="1" source="dWMFUqPLQpucTrkb1VZX-1">
          <mxGeometry width="50" height="50" relative="1" as="geometry">
            <mxPoint x="415" y="-1240" as="sourcePoint" />
            <mxPoint x="-640" y="-1220" as="targetPoint" />
          </mxGeometry>
        </mxCell>
        <mxCell id="dWMFUqPLQpucTrkb1VZX-4" value="Главная" style="text;strokeColor=none;fillColor=none;html=1;fontSize=24;fontStyle=1;verticalAlign=middle;align=center;" vertex="1" parent="1">
          <mxGeometry x="-550" y="-1275" width="100" height="40" as="geometry" />
        </mxCell>
        <mxCell id="dWMFUqPLQpucTrkb1VZX-13" value="Выход" style="text;strokeColor=none;fillColor=none;html=1;fontSize=24;fontStyle=1;verticalAlign=middle;align=center;" vertex="1" parent="1">
          <mxGeometry x="-875" y="-1275" width="100" height="40" as="geometry" />
        </mxCell>
        <mxCell id="dWMFUqPLQpucTrkb1VZX-14" value="Закрытие приложения" style="whiteSpace=wrap;html=1;strokeColor=#FF0000;gradientColor=none;fillColor=#FFFF78;" vertex="1" parent="1">
          <mxGeometry x="-920" y="-1135" width="190" height="60" as="geometry" />
        </mxCell>
        <mxCell id="dWMFUqPLQpucTrkb1VZX-15" value="" style="endArrow=classic;html=1;strokeColor=#FF0000;entryX=0.5;entryY=0;entryDx=0;entryDy=0;" edge="1" parent="1" target="dWMFUqPLQpucTrkb1VZX-14">
          <mxGeometry width="50" height="50" relative="1" as="geometry">
            <mxPoint x="-825" y="-1225" as="sourcePoint" />
            <mxPoint x="-475" y="-1015" as="targetPoint" />
          </mxGeometry>
        </mxCell>
        <mxCell id="dWMFUqPLQpucTrkb1VZX-17" value="" style="ellipse;shape=doubleEllipse;whiteSpace=wrap;html=1;aspect=fixed;gradientColor=none;fillColor=#000000;strokeColor=#FF0000;" vertex="1" parent="1">
          <mxGeometry x="-865" y="-985" width="80" height="80" as="geometry" />
        </mxCell>
        <mxCell id="dWMFUqPLQpucTrkb1VZX-20" value="Статистика алгоритма" style="text;strokeColor=none;fillColor=none;html=1;fontSize=24;fontStyle=1;verticalAlign=middle;align=center;" vertex="1" parent="1">
          <mxGeometry x="-275" y="-1280" width="100" height="40" as="geometry" />
        </mxCell>
        <mxCell id="dWMFUqPLQpucTrkb1VZX-33" value="Предсказания результатов матчей" style="text;strokeColor=none;fillColor=none;html=1;fontSize=24;fontStyle=1;verticalAlign=middle;align=center;" vertex="1" parent="1">
          <mxGeometry x="130" y="-1275" width="100" height="40" as="geometry" />
        </mxCell>
        <mxCell id="dWMFUqPLQpucTrkb1VZX-78" value="" style="endArrow=classic;html=1;strokeColor=#FF0000;entryX=0.5;entryY=0;entryDx=0;entryDy=0;exitX=0.5;exitY=1;exitDx=0;exitDy=0;" edge="1" parent="1" source="dWMFUqPLQpucTrkb1VZX-14" target="dWMFUqPLQpucTrkb1VZX-17">
          <mxGeometry width="50" height="50" relative="1" as="geometry">
            <mxPoint x="-815" y="-1215" as="sourcePoint" />
            <mxPoint x="-815" y="-1125" as="targetPoint" />
          </mxGeometry>
        </mxCell>
        <mxCell id="dWMFUqPLQpucTrkb1VZX-80" value="Было нажатие на логотип команды?" style="rhombus;whiteSpace=wrap;html=1;fillColor=#FFFF78;gradientColor=none;strokeColor=#FF0000;" vertex="1" parent="1">
          <mxGeometry x="-340" y="-1120" width="195" height="80" as="geometry" />
        </mxCell>
        <mxCell id="dWMFUqPLQpucTrkb1VZX-81" value="" style="endArrow=classic;html=1;strokeColor=#FF0000;entryX=0.5;entryY=0;entryDx=0;entryDy=0;" edge="1" parent="1" target="dWMFUqPLQpucTrkb1VZX-80">
          <mxGeometry width="50" height="50" relative="1" as="geometry">
            <mxPoint x="-240" y="-1220" as="sourcePoint" />
            <mxPoint x="-815" y="-1125" as="targetPoint" />
          </mxGeometry>
        </mxCell>
        <mxCell id="dWMFUqPLQpucTrkb1VZX-82" value="Было нажатие на логотип команды?" style="rhombus;whiteSpace=wrap;html=1;fillColor=#FFFF78;gradientColor=none;strokeColor=#FF0000;" vertex="1" parent="1">
          <mxGeometry x="20" y="-1110" width="195" height="80" as="geometry" />
        </mxCell>
        <mxCell id="dWMFUqPLQpucTrkb1VZX-83" value="" style="endArrow=classic;html=1;strokeColor=#FF0000;entryX=0.5;entryY=0;entryDx=0;entryDy=0;" edge="1" parent="1" target="dWMFUqPLQpucTrkb1VZX-82">
          <mxGeometry width="50" height="50" relative="1" as="geometry">
            <mxPoint x="120" y="-1220" as="sourcePoint" />
            <mxPoint x="-232.5" y="-1110" as="targetPoint" />
          </mxGeometry>
        </mxCell>
        <mxCell id="dWMFUqPLQpucTrkb1VZX-84" value="" style="endArrow=classic;html=1;strokeColor=#FF0000;exitX=0.5;exitY=1;exitDx=0;exitDy=0;" edge="1" parent="1" source="dWMFUqPLQpucTrkb1VZX-80">
          <mxGeometry width="50" height="50" relative="1" as="geometry">
            <mxPoint x="-230" y="-1210" as="sourcePoint" />
            <mxPoint x="-40" y="-960" as="targetPoint" />
            <Array as="points">
              <mxPoint x="-40" y="-1030" />
            </Array>
          </mxGeometry>
        </mxCell>
        <mxCell id="dWMFUqPLQpucTrkb1VZX-85" value="да&lt;br&gt;" style="edgeLabel;html=1;align=center;verticalAlign=middle;resizable=0;points=[];" vertex="1" connectable="0" parent="dWMFUqPLQpucTrkb1VZX-84">
          <mxGeometry x="0.0114" y="-1" relative="1" as="geometry">
            <mxPoint x="-1" as="offset" />
          </mxGeometry>
        </mxCell>
        <mxCell id="dWMFUqPLQpucTrkb1VZX-87" value="" style="endArrow=classic;html=1;strokeColor=#FF0000;exitX=0.5;exitY=1;exitDx=0;exitDy=0;" edge="1" parent="1" source="dWMFUqPLQpucTrkb1VZX-82">
          <mxGeometry width="50" height="50" relative="1" as="geometry">
            <mxPoint x="-232.5" y="-1030" as="sourcePoint" />
            <mxPoint x="-20" y="-960" as="targetPoint" />
            <Array as="points">
              <mxPoint x="-20" y="-1030" />
            </Array>
          </mxGeometry>
        </mxCell>
        <mxCell id="dWMFUqPLQpucTrkb1VZX-88" value="да&lt;br&gt;" style="edgeLabel;html=1;align=center;verticalAlign=middle;resizable=0;points=[];" vertex="1" connectable="0" parent="dWMFUqPLQpucTrkb1VZX-87">
          <mxGeometry x="0.0114" y="-1" relative="1" as="geometry">
            <mxPoint x="-1" as="offset" />
          </mxGeometry>
        </mxCell>
        <mxCell id="dWMFUqPLQpucTrkb1VZX-89" value="" style="endArrow=none;html=1;strokeWidth=3;" edge="1" parent="1">
          <mxGeometry width="50" height="50" relative="1" as="geometry">
            <mxPoint x="-300" y="-960" as="sourcePoint" />
            <mxPoint x="330" y="-960" as="targetPoint" />
          </mxGeometry>
        </mxCell>
        <mxCell id="dWMFUqPLQpucTrkb1VZX-90" value="Просмотр статистики команд" style="text;strokeColor=none;fillColor=none;html=1;fontSize=24;fontStyle=1;verticalAlign=middle;align=center;" vertex="1" parent="1">
          <mxGeometry x="-60" y="-1000" width="100" height="40" as="geometry" />
        </mxCell>
        <mxCell id="dWMFUqPLQpucTrkb1VZX-91" value="Была закрыта страница?" style="rhombus;whiteSpace=wrap;html=1;fillColor=#FFFF78;gradientColor=none;strokeColor=#FF0000;" vertex="1" parent="1">
          <mxGeometry x="-110" y="-905" width="195" height="80" as="geometry" />
        </mxCell>
        <mxCell id="dWMFUqPLQpucTrkb1VZX-92" value="" style="endArrow=classic;html=1;strokeColor=#FF0000;" edge="1" parent="1">
          <mxGeometry width="50" height="50" relative="1" as="geometry">
            <mxPoint x="-11.25" y="-825" as="sourcePoint" />
            <mxPoint x="-790" y="-1170" as="targetPoint" />
            <Array as="points">
              <mxPoint x="-380" y="-840" />
              <mxPoint x="-410" y="-1200" />
              <mxPoint x="-790" y="-1200" />
            </Array>
          </mxGeometry>
        </mxCell>
        <mxCell id="dWMFUqPLQpucTrkb1VZX-93" value="" style="endArrow=none;html=1;strokeWidth=3;" edge="1" parent="1">
          <mxGeometry width="50" height="50" relative="1" as="geometry">
            <mxPoint x="-1010" y="-1170" as="sourcePoint" />
            <mxPoint x="-750" y="-1170" as="targetPoint" />
          </mxGeometry>
        </mxCell>
      </root>
    </mxGraphModel>
  </diagram>
</mxfile>
